
<svg xmlns="http://www.w3.org/2000/svg" viewBox="0 0 294.18 103.33"><defs><style>.cls-1{fill:#fff;}.cls-2{fill:#a05cbf;}.cls-3{fill:#fff;}</style></defs><title>Asset 1</title><g id="Layer_2" data-name="Layer 2"><g id="Layer_1-2" data-name="Layer 1"><path class="cls-1" d="M129.76,69.73a11,11,0,0,0-.42,3.27,11.82,11.82,0,0,0,20.15,8.36,12.13,12.13,0,0,0,2.91-4.68h2.89a14.9,14.9,0,0,1-3.85,6.62,14.56,14.56,0,1,1-20.58-20.59,14.53,14.53,0,0,1,20.6,0,15,15,0,0,1,3.94,7Zm21.62-2.67a10.56,10.56,0,0,0-1.89-2.41,11.84,11.84,0,0,0-16.71,0,10.47,10.47,0,0,0-1.88,2.41Z"/><path class="cls-1" d="M152.34,58.86h3.12l12,22.79,12.15-22.79h3L169.26,84.4v0l-1.77,3.31-1.65-3.16Z"/><path class="cls-1" d="M182.8,69.73a11,11,0,0,0-.43,3.27,11.82,11.82,0,0,0,20.16,8.36,12,12,0,0,0,2.9-4.68h2.89a14.9,14.9,0,0,1-3.85,6.62,14.56,14.56,0,1,1-20.58-20.59,14.53,14.53,0,0,1,20.6,0,15,15,0,0,1,3.95,7Zm21.61-2.67a10.47,10.47,0,0,0-1.88-2.41,11.84,11.84,0,0,0-16.71,0,10.85,10.85,0,0,0-1.89,2.41Z"/><path class="cls-1" d="M210.38,73.12a15.2,15.2,0,0,1,3.85-10.24,11.89,11.89,0,0,1,18.27,0,15.1,15.1,0,0,1,3.83,10.26V87.29h-2.71V73.16a12.23,12.23,0,0,0-3.06-8.22,9.26,9.26,0,0,0-7.18-3.37,9.36,9.36,0,0,0-7.2,3.35,12.24,12.24,0,0,0-3.08,8.18V87.29h-2.72Z"/><path class="cls-1" d="M243.09,58.84h6.49v2.79h-6.49V87.25h-2.81V61.63h-6.47V58.84h6.49V53h2.79Z"/><path class="cls-1" d="M255.93,61.15a2.9,2.9,0,0,0-2.17.9,3,3,0,0,0-.91,2.2,3,3,0,0,0,.91,2.15,3.9,3.9,0,0,0,2.57.85,10.46,10.46,0,0,1,10,10.28,9.7,9.7,0,0,1-3,7.18,10,10,0,0,1-7.3,3,9.93,9.93,0,0,1-7.24-2.95,10.16,10.16,0,0,1-3.1-7.46h2.76a7.53,7.53,0,0,0,2.29,5.52A7.32,7.32,0,0,0,256,85a7.21,7.21,0,0,0,5.33-2.2,7,7,0,0,0,2.23-5.23,7.12,7.12,0,0,0-2.21-5.28,7.71,7.71,0,0,0-5.1-2.33,6.45,6.45,0,0,1-4.08-1.27,3.06,3.06,0,0,1-.33-.29,5.49,5.49,0,0,1-1.71-4.11,5.89,5.89,0,0,1,5.85-5.86,5.8,5.8,0,0,1,4.18,1.72l1.06,1.06L258.8,63a3.21,3.21,0,0,0-2.87-1.81Z"/><path class="cls-1" d="M129.36,18h-2.79V15.33h2.79Zm0,31.63h-2.79V21.21h2.79Z"/><path class="cls-1" d="M133.42,35.47a15.2,15.2,0,0,1,3.85-10.24,11.89,11.89,0,0,1,18.27,0,15.08,15.08,0,0,1,3.83,10.26V49.64h-2.72V35.51a12.23,12.23,0,0,0-3.06-8.22,9.25,9.25,0,0,0-7.18-3.37,9.38,9.38,0,0,0-7.2,3.35,12.24,12.24,0,0,0-3.08,8.18V49.64h-2.71Z"/><path class="cls-1" d="M171.61,23.5a2.92,2.92,0,0,0-2.17.9,3,3,0,0,0-.91,2.2,3,3,0,0,0,.91,2.15,3.93,3.93,0,0,0,2.58.85A10.45,10.45,0,0,1,182,39.88a9.7,9.7,0,0,1-3,7.18,10.37,10.37,0,0,1-14.54,0,10.16,10.16,0,0,1-3.1-7.46h2.76a7.61,7.61,0,0,0,2.29,5.52,7.32,7.32,0,0,0,5.29,2.14,7.21,7.21,0,0,0,5.33-2.2,7,7,0,0,0,2.24-5.23A7.13,7.13,0,0,0,177,34.6a7.71,7.71,0,0,0-5.1-2.33A6.47,6.47,0,0,1,167.8,31a3.06,3.06,0,0,1-.33-.29,5.49,5.49,0,0,1-1.71-4.11,5.89,5.89,0,0,1,5.85-5.86,5.79,5.79,0,0,1,4.18,1.72l1.06,1.06-2.37,1.79a3,3,0,0,0-.65-.91A3.06,3.06,0,0,0,171.61,23.5Z"/><path class="cls-1" d="M186.69,59.18h-2.78V35.37a14.56,14.56,0,0,1,24.86-10.3,14.16,14.16,0,0,1,4.29,10.3,14,14,0,0,1-4.28,10.3,14.55,14.55,0,0,1-20.59,0,14.28,14.28,0,0,1-1.5-1.62Zm23.6-23.81a11.8,11.8,0,1,0-20.16,8.36,11.81,11.81,0,0,0,20.16-8.36Z"/><path class="cls-1" d="M217.78,18H215V15.33h2.8Zm0,31.63H215V21.21h2.8Z"/><path class="cls-1" d="M237.28,24.23a9.5,9.5,0,0,0-9.65,3,12.24,12.24,0,0,0-3.08,8.18V49.64h-2.71V35.47a15.2,15.2,0,0,1,3.85-10.24A11.75,11.75,0,0,1,234.81,21a11.13,11.13,0,0,1,2.47.25Z"/><path class="cls-1" d="M237.45,32.08a11,11,0,0,0-.42,3.27,11.82,11.82,0,0,0,20.15,8.36A12.13,12.13,0,0,0,260.09,39H263a14.9,14.9,0,0,1-3.85,6.62,14.55,14.55,0,0,1-20.59,0,14,14,0,0,1-4.28-10.3,14.1,14.1,0,0,1,4.3-10.29,14.52,14.52,0,0,1,20.59,0,15,15,0,0,1,3.95,7Zm21.62-2.67A10.56,10.56,0,0,0,257.18,27a11.84,11.84,0,0,0-16.71,0,10.47,10.47,0,0,0-1.88,2.41Z"/><path class="cls-1" d="M291.41,15.28h2.77V35.35a14.55,14.55,0,0,1-24.85,10.3A14.11,14.11,0,0,1,265,35.35a14.56,14.56,0,0,1,24.87-10.29,17.21,17.21,0,0,1,1.5,1.61Zm-23.6,20.07A11.8,11.8,0,1,0,288,27a11.8,11.8,0,0,0-20.15,8.35Z"/><path class="cls-2" d="M34.77,44.89V45c.08,4.39-1.54,16.93-4.58,20.15a15.06,15.06,0,0,1-11,4.94H18.5C5.4,70.27,5.19,73.46,0,86.46H20.32c11.35,0,16.44-2.67,22.64-9s8.12-12,8.12-32.82v-.07Z"/><path class="cls-2" d="M34.83,40.15,51,39.87l.09-27.06C39.37,17.76,35.36,28.69,34.83,40.15Z"/><path class="cls-1" d="M18.82,66.33h.41c.27,0,.54,0,.8-.06A42.84,42.84,0,0,1,73.94,9.1h5.79a47.4,47.4,0,0,1,9.32.8A49.38,49.38,0,0,0,13.14,66.69a47,47,0,0,1,5.29-.36Z"/><path class="cls-1" d="M101,59.82a42.12,42.12,0,0,1-2.44,7,15.77,15.77,0,0,1,6.18,2.24,49,49,0,0,0,3.87-14.86A25.3,25.3,0,0,1,101,59.82Z"/><path class="cls-1" d="M59.41,92.25A42.62,42.62,0,0,1,37.8,86.38a26.42,26.42,0,0,1-7.57,2.85,49.25,49.25,0,0,0,57.14.88,36.75,36.75,0,0,1-10.19-1.73A42.58,42.58,0,0,1,59.41,92.25Z"/><path class="cls-2" d="M92,70.05h-.74c-4.31-.12-9.47.5-12.47-2.67-.76-.81-1.38-2.9-1.85-5.7,29.23-2.15,32.18-13.93,32.18-18,0-29.78-19.11-30.91-29.39-30.91H59.41c5.19,13,5.4,14.88,18.5,15.11h.75C83,28,93.38,26.4,94,39.42,94.5,49.4,76.8,53,75.77,44.61c0-10.21-16.36-12-16.36-12,0,20.85,1.92,38.56,8.13,44.85s11.28,9,22.64,9H110.5C105.31,73.46,105.1,70.27,92,70.05Z"/><path class="cls-3" d="M146.93,94.82h2.39a6.19,6.19,0,0,1,1,.08,2.27,2.27,0,0,1,.86.31,2,2,0,0,1,.62.67A2.31,2.31,0,0,1,152,97a1.71,1.71,0,0,1-.38,1.1,1.85,1.85,0,0,1-1.11.63v0a2.3,2.3,0,0,1,.75.19,2.1,2.1,0,0,1,.59.42,2,2,0,0,1,.38.63,2.28,2.28,0,0,1,.13.8,2,2,0,0,1-1,1.87,2.65,2.65,0,0,1-.91.35,4.2,4.2,0,0,1-.9.1h-2.65Zm.77,3.59h1.61a2.63,2.63,0,0,0,1-.15,1.7,1.7,0,0,0,.58-.36,1,1,0,0,0,.29-.45,1.82,1.82,0,0,0,.07-.44,1.54,1.54,0,0,0-.15-.72,1.23,1.23,0,0,0-.39-.45,1.43,1.43,0,0,0-.58-.24,3.11,3.11,0,0,0-.69-.07H147.7Zm0,4h1.77a3.08,3.08,0,0,0,1.1-.16,1.68,1.68,0,0,0,.63-.41,1.26,1.26,0,0,0,.3-.52,2,2,0,0,0,.08-.5A1.62,1.62,0,0,0,151,99.5a2.22,2.22,0,0,0-.64-.3,3,3,0,0,0-.72-.09H147.7Z"/><path class="cls-3" d="M158,94.82h.8l3.49,8.3h-.87l-.9-2.21h-4.39l-.94,2.21h-.81Zm.36.85-1.93,4.54h3.81Z"/><path class="cls-3" d="M164.68,94.82h1l5.05,7.27h0V94.82h.78v8.3h-1l-5.05-7.27h0v7.27h-.77Z"/><path class="cls-3" d="M183.35,103.12h-4.57a4.66,4.66,0,0,1-1.66-.31,4.22,4.22,0,0,1-1.39-.86,4.34,4.34,0,0,1-.95-1.34,4.15,4.15,0,0,1-.36-1.75,4.64,4.64,0,0,1,.3-1.68,3.91,3.91,0,0,1,.84-1.34,4,4,0,0,1,1.33-.9,4.75,4.75,0,0,1,3.48,0,3.87,3.87,0,0,1,1.32.9,3.77,3.77,0,0,1,.84,1.34,4.64,4.64,0,0,1,.3,1.68,4.33,4.33,0,0,1-.55,2.12,3.68,3.68,0,0,1-.65.85,2.7,2.7,0,0,1-.87.56v0h2.59Zm-8.16-4.26a3.54,3.54,0,0,0,.27,1.38,3.31,3.31,0,0,0,.74,1.13,3.51,3.51,0,0,0,2.56,1,3.18,3.18,0,0,0,1.41-.3,3,3,0,0,0,1-.79,3.08,3.08,0,0,0,.64-1.13,3.91,3.91,0,0,0,.22-1.33,4.28,4.28,0,0,0-.23-1.4,3.48,3.48,0,0,0-.68-1.13,3,3,0,0,0-1.08-.75,3.63,3.63,0,0,0-1.44-.27,3.71,3.71,0,0,0-1.45.27,3.18,3.18,0,0,0-1.08.75,3.46,3.46,0,0,0-.67,1.13A4,4,0,0,0,175.19,98.86Z"/><path class="cls-3" d="M191.79,99.94a5.34,5.34,0,0,1-.15,1.28,2.91,2.91,0,0,1-.51,1.08,2.66,2.66,0,0,1-.93.75,3.41,3.41,0,0,1-1.43.28,3.36,3.36,0,0,1-1.42-.28,2.61,2.61,0,0,1-.94-.75,2.91,2.91,0,0,1-.51-1.08,5.34,5.34,0,0,1-.15-1.28V94.82h.77v4.92a6.41,6.41,0,0,0,.08,1,3,3,0,0,0,.33.94,1.85,1.85,0,0,0,.68.71,2.1,2.1,0,0,0,1.16.28,2.13,2.13,0,0,0,1.17-.28,1.93,1.93,0,0,0,.68-.71,3,3,0,0,0,.32-.94,6.41,6.41,0,0,0,.08-1V94.82h.77Z"/><path class="cls-3" d="M195.09,94.82h5.07v.71h-4.3v3h4v.7h-4v3.23h4.49v.71h-5.26Z"/><path class="cls-3" d="M205,95.53h-2.83v-.71h6.44v.71h-2.83v7.59H205Z"/><path class="cls-3" d="M215.32,94.82h.77v3.66h4.64V94.82h.77v8.3h-.77V99.18h-4.64v3.94h-.77Z"/><path class="cls-3" d="M227.49,94.82h.79l3.5,8.3h-.87l-.9-2.21h-4.4l-.93,2.21h-.81Zm.36.85-1.93,4.54h3.81Z"/><path class="cls-3" d="M234.14,94.82h.77v7.59h3.87v.71h-4.64Z"/><path class="cls-3" d="M241.17,94.82h.77v7.59h3.87v.71h-4.64Z"/></g></g></svg>
