<svg xmlns="http://www.w3.org/2000/svg" viewBox="0 0 454.14 164.44"><defs><style>.cls-1{fill:#fff;}.cls-2{fill:#a05cbf;}</style></defs><title>Asset 1</title><g id="Layer_2" data-name="Layer 2"><g id="Capa_1" data-name="Capa 1"><path class="cls-1" d="M202.76,28.52H198.5v-4h4.26Zm0,48.23H198.5V33.45h4.26Z"/><path class="cls-1" d="M209,55.2a23.16,23.16,0,0,1,5.87-15.61,18.13,18.13,0,0,1,27.87,0,23.06,23.06,0,0,1,5.84,15.65V76.81h-4.14V55.26a18.65,18.65,0,0,0-4.67-12.53,14.07,14.07,0,0,0-10.95-5.14,14.24,14.24,0,0,0-11,5.11,18.67,18.67,0,0,0-4.7,12.47V76.81H209Z"/><path class="cls-1" d="M267.2,36.94a4.51,4.51,0,0,0-3.32,1.38,4.68,4.68,0,0,0,0,6.64c.71.73,2,1.17,3.94,1.29a15,15,0,0,1,5.08,1.14A15.31,15.31,0,0,1,280.12,53a15,15,0,0,1,2.88,8.9,14.81,14.81,0,0,1-4.64,10.95,15.82,15.82,0,0,1-22.17.09,15.51,15.51,0,0,1-4.72-11.4h4.19a11.61,11.61,0,0,0,3.5,8.43,11.22,11.22,0,0,0,8.07,3.26,11.06,11.06,0,0,0,8.13-3.35,11.16,11.16,0,0,0,0-16,11.74,11.74,0,0,0-7.78-3.55c-2.9-.15-5-.79-6.22-1.94a4.73,4.73,0,0,1-.5-.44,8.37,8.37,0,0,1-2.61-6.28,9,9,0,0,1,8.92-8.92,8.85,8.85,0,0,1,6.37,2.61L275.19,37l-3.61,2.73a4.55,4.55,0,0,0-1-1.38A4.69,4.69,0,0,0,267.2,36.94Z"/><path class="cls-1" d="M290.19,91.37H286V55.06a22.19,22.19,0,0,1,37.9-15.71,21.56,21.56,0,0,1,6.54,15.71,22.21,22.21,0,0,1-37.93,15.7,25.58,25.58,0,0,1-2.29-2.46Zm36-36.31A18,18,0,1,0,295.45,67.8a18,18,0,0,0,30.74-12.74Z"/><path class="cls-1" d="M337.61,28.52h-4.26v-4h4.26Zm0,48.23h-4.26V33.45h4.26Z"/><path class="cls-1" d="M367.35,38.06a14.39,14.39,0,0,0-3.73-.47,14.24,14.24,0,0,0-11,5.11,18.67,18.67,0,0,0-4.7,12.47V76.81h-4.13V55.2a23.07,23.07,0,0,1,5.87-15.61,18.22,18.22,0,0,1,17.67-6.14Z"/><path class="cls-1" d="M367.62,50a16.87,16.87,0,0,0-.65,5,18,18,0,0,0,30.74,12.74,18.49,18.49,0,0,0,4.43-7.13h4.4a22.71,22.71,0,0,1-5.87,10.09A22.23,22.23,0,0,1,362.74,55a21.53,21.53,0,0,1,6.55-15.71,22.17,22.17,0,0,1,31.41,0,23,23,0,0,1,6,10.66Zm33-4.08a16.5,16.5,0,0,0-2.88-3.67,18.06,18.06,0,0,0-25.48,0A16.5,16.5,0,0,0,369.35,46Z"/><path class="cls-1" d="M449.91,24.41h4.23V55a22.19,22.19,0,0,1-37.9,15.7A21.51,21.51,0,0,1,409.69,55a22.21,22.21,0,0,1,37.93-15.71,24,24,0,0,1,2.29,2.47ZM413.92,55a18,18,0,1,0,30.74-12.74A18,18,0,0,0,413.92,55Z"/><path class="cls-1" d="M203.37,107.46a16.89,16.89,0,0,0-.64,5,18,18,0,0,0,30.74,12.74,18.42,18.42,0,0,0,4.43-7.13h4.4a22.74,22.74,0,0,1-5.87,10.1,22.2,22.2,0,1,1-31.38-31.42,22.2,22.2,0,0,1,31.41,0,23,23,0,0,1,6,10.66Zm33-4.08a16.41,16.41,0,0,0-2.87-3.67,18.07,18.07,0,0,0-25.49,0,16.11,16.11,0,0,0-2.87,3.67Z"/><path class="cls-1" d="M237.81,90.87h4.76l18.35,34.76,18.52-34.76h4.64l-20.46,39v0l-2.7,5-2.53-4.81Z"/><path class="cls-1" d="M284.26,107.46a16.89,16.89,0,0,0-.64,5,18,18,0,0,0,30.73,12.74,18.33,18.33,0,0,0,4.44-7.13h4.4a22.74,22.74,0,0,1-5.87,10.1,22.2,22.2,0,1,1-31.38-31.42,22.2,22.2,0,0,1,31.41,0,23,23,0,0,1,6,10.66Zm33-4.08a16.5,16.5,0,0,0-2.88-3.67,18.06,18.06,0,0,0-25.48,0,16.5,16.5,0,0,0-2.88,3.67Z"/><path class="cls-1" d="M326.34,112.63A23.07,23.07,0,0,1,332.21,97a18.11,18.11,0,0,1,27.86,0,23,23,0,0,1,5.84,15.65v21.54h-4.14V112.69a18.61,18.61,0,0,0-4.67-12.54,14.11,14.11,0,0,0-11-5.14,14.31,14.31,0,0,0-11,5.11,18.64,18.64,0,0,0-4.69,12.48v21.63h-4.14Z"/><path class="cls-1" d="M376.22,90.84h9.89V95.1h-9.89v39.08h-4.29V95.1h-9.86V90.84H372v-9h4.26Z"/><path class="cls-1" d="M395.8,94.37a4.69,4.69,0,0,0-3.32,8,6,6,0,0,0,3.94,1.29,14.81,14.81,0,0,1,5.08,1.15,15.23,15.23,0,0,1,7.22,5.63,15,15,0,0,1,2.88,8.9,14.78,14.78,0,0,1-4.64,11,15.82,15.82,0,0,1-22.17.09A15.49,15.49,0,0,1,380.07,119h4.19a11.6,11.6,0,0,0,3.5,8.42,11.18,11.18,0,0,0,8.07,3.26,11,11,0,0,0,8.13-3.34,11.16,11.16,0,0,0,0-16,11.7,11.7,0,0,0-7.78-3.56c-2.9-.14-5-.79-6.22-1.93-.26-.21-.41-.36-.5-.44a8.4,8.4,0,0,1-2.61-6.29,9,9,0,0,1,8.92-8.92,8.85,8.85,0,0,1,6.37,2.61l1.62,1.62-3.61,2.73a4.55,4.55,0,0,0-1-1.38A4.69,4.69,0,0,0,395.8,94.37Z"/><path class="cls-1" d="M130.19,137.47q-2.88,1-5.89,1.73A65,65,0,0,1,45.86,91.46c-.19-.79-.36-1.58-.52-2.37a83.41,83.41,0,0,1-11.52-.94c.32,2,.71,4,1.2,5.95a76.13,76.13,0,0,0,101.38,53A84.56,84.56,0,0,1,130.19,137.47Z"/><path class="cls-1" d="M56.47,37.94a64.89,64.89,0,0,1,113.1,61.37,7.52,7.52,0,0,1,1.78,3.25l3.13,12.17A76.06,76.06,0,1,0,41,41.91Z"/><path class="cls-2" d="M161.31,93.76q-7.51-29.19-33.78-44.37T71.89,41.76L0,60.23H0c19.35,25.54,50.54,24,79.59,16.56l1.65-.46a34.53,34.53,0,0,1,27.16,4.24,35.83,35.83,0,0,1,16.74,22.49l0,.16,36.17-9.29Z"/><path class="cls-2" d="M164.05,104.43l-35.85,9.21c8.11,25,22.4,47,51.27,50.8Z"/></g></g></svg>
