
<svg xmlns="http://www.w3.org/2000/svg" viewBox="0 0 740.73 199.57"><defs><style>.cls-1{fill:#a11a35;}.cls-2{fill:#fff68b;}.cls-3{fill:#ffea60;}.cls-4{fill:#ffe555;}.cls-5{fill:#f6893b;}.cls-6{fill:#c53431;}.cls-7{fill:#331724;}.cls-8{fill:#160d11;}.cls-9{fill:#f9a258;}</style></defs><title>Asset 1</title><g id="Layer_2" data-name="Layer 2"><g id="Layer_1-2" data-name="Layer 1"><path d="M209.36,69.81a80.48,80.48,0,0,0-9.78,14.44,162,162,0,0,0-7.72,16.68q-3.41,8.59-6.1,16.53-3,9-6.2,17a77.09,77.09,0,0,1-7.25,14.16,23.74,23.74,0,0,1-7.1,6.78,25.85,25.85,0,0,1-8.4,3.28,26.27,26.27,0,0,1-8.22.39,12.18,12.18,0,0,1-8.19-3.76,11.29,11.29,0,0,1-3-7.93,13.39,13.39,0,0,1,3.14-8.42,21.58,21.58,0,0,1,7.7-5.64,36.84,36.84,0,0,1,10.18-2.91,2.19,2.19,0,0,1,1.18,1.18,3,3,0,0,1,.29,1.73,1.08,1.08,0,0,1-1.06,1,15.91,15.91,0,0,0-6.07.5,23.75,23.75,0,0,0-6.2,2.61,15.07,15.07,0,0,0-4.72,4.34,8.57,8.57,0,0,0-1.56,5.7,6.94,6.94,0,0,0,2.76,4.93,10.08,10.08,0,0,0,6,2.09,11.27,11.27,0,0,0,7-2.26,28,28,0,0,0,7.28-8.55,92.58,92.58,0,0,0,6.19-13q2.91-7.38,5.85-15.59t6.07-16.41a146.7,146.7,0,0,1,7.08-15.48,66.22,66.22,0,0,1,8.75-12.8,32.88,32.88,0,0,1,11.09-8.33c-.86-.24-1.68-.45-2.46-.65s-1.39-.33-1.82-.41A58.65,58.65,0,0,0,191,59.39a39.82,39.82,0,0,0-15.32,3,30.27,30.27,0,0,0-11.6,8.63,34,34,0,0,0-6.72,14,31.88,31.88,0,0,0-.8,10.07c.3,3.08,1.28,5.41,3,7s4.17,2,7.46,1.09a15.32,15.32,0,0,0,6.25-3.35,14.43,14.43,0,0,0,4-5.81,11.94,11.94,0,0,0,.29-7.34,1.65,1.65,0,0,1,.5-1.5,1.61,1.61,0,0,1,1.38-.44c.51.08.9.47,1.18,1.17a13.6,13.6,0,0,1-.59,8.84,17.76,17.76,0,0,1-5.34,6.93,21.61,21.61,0,0,1-8,4q-7.09,1.77-11.6-.29a11.87,11.87,0,0,1-6.31-6.7A19.87,19.87,0,0,1,148,88.22a31.92,31.92,0,0,1,4.73-11.89,38.4,38.4,0,0,1,10.42-10.72,46.15,46.15,0,0,1,16.29-7,45,45,0,0,1,12.25-1.11,85,85,0,0,1,10.42,1.29q3.46.59,7,1a47.43,47.43,0,0,0,7.51.23,27.72,27.72,0,0,1,5,0A40.08,40.08,0,0,0,209.36,69.81Z"/><path d="M224.74,99.84a10.27,10.27,0,0,1,5.17,1.09,5.83,5.83,0,0,1,2.61,2.91,10.13,10.13,0,0,1,.68,4.1,22.77,22.77,0,0,1-.65,4.73,44.67,44.67,0,0,1-1.41,4.73c-.55,1.52-1,2.91-1.52,4.17-.24.62-.45,1.19-.65,1.7l-2.52,6.93a15.18,15.18,0,0,0-1.06,5.72c.12,1.35.72,1.93,1.82,1.74q2.52-.65,5.67-4.23a78.7,78.7,0,0,0,6.28-8.34q3.14-4.75,5.72-8.92c.9-1.45,1.71-2.71,2.41-3.76.39-.59.71-.74.94-.44s.12,1.08-.35,2.37a84.07,84.07,0,0,1-3.76,7.9,88.6,88.6,0,0,1-5.93,9.63,44.77,44.77,0,0,1-7.28,8.19,12.43,12.43,0,0,1-5.37,2.91,8.35,8.35,0,0,1-6-1,7.87,7.87,0,0,1-3.94-5.25q-1-3.74.88-9.66l4.7-12.63a.38.38,0,0,1,.06-.17,34.61,34.61,0,0,0,1.29-4,7.59,7.59,0,0,0,.24-3.87,1.05,1.05,0,0,0-.5-.5,2.84,2.84,0,0,0-.62-.21q-2.58-.06-5.37,3a44.68,44.68,0,0,0-5.58,8q-2.79,4.94-5.26,10.31t-4.34,9.71q-1.87,4.35-2.88,6.35h-11l15.91-43.28h11l-4.64,12.51a33.88,33.88,0,0,1,4.26-6.23,22.85,22.85,0,0,1,4.29-3.84,15.11,15.11,0,0,1,3.79-1.91A10,10,0,0,1,224.74,99.84Z"/><path d="M239.8,125.94a1.46,1.46,0,0,1,.27.41,2.76,2.76,0,0,1,.18.53,2.82,2.82,0,0,1,.05.38q-1.58,4.63-.14,7.55a5.79,5.79,0,0,0,5.14,3.2c2.42,0,4.44-1.2,6-3.7H251c-1.21-.24-1.94-.71-2.17-1.41a4.85,4.85,0,0,1-.18-2.29,6,6,0,0,1,.74-2.35,1.76,1.76,0,0,1,1.61-.94,10.2,10.2,0,0,0,1.59.35,14,14,0,0,0-1.24-3.64c-.58-1.17-1.23-2.35-1.93-3.52a35.82,35.82,0,0,1-2.06-3.58,19.3,19.3,0,0,1-1.47-4,10.09,10.09,0,0,1,2.94-10.21,10.39,10.39,0,0,1,5.11-2.76l2.34,5.46h-.11a3.37,3.37,0,0,0-1.73,1.73,3.48,3.48,0,0,0,0,2.26,12.2,12.2,0,0,0,1.38,2.91c.64,1,1.38,2.12,2.2,3.26,1.13,1.6,2.2,3.28,3.2,5a18.38,18.38,0,0,1,2.08,5.37,16.62,16.62,0,0,0,4.17-3,37.91,37.91,0,0,0,6.4-7.81q.89-1.53,1.65-2.76c.39-.59.68-.74.88-.44s.09,1.08-.3,2.37a35.38,35.38,0,0,1-5.05,9.93,26.51,26.51,0,0,1-7.92,7.28,13.57,13.57,0,0,1-2.18,4.75,15.92,15.92,0,0,1-3.64,3.64,15.71,15.71,0,0,1-4.55,2.44,17.21,17.21,0,0,1-4.37.85,13,13,0,0,1-6.84-1.52,11,11,0,0,1-4.46-4.38,8.78,8.78,0,0,1-1-5.75,9.62,9.62,0,0,1,3.46-5.67A.22.22,0,0,1,239.8,125.94Z"/><path d="M275.47,138l-11.39,31h-11l25.48-69.17h11l-2.06,5.46a27.85,27.85,0,0,1,5.61-3.9,11,11,0,0,1,4.67-1.56,9.71,9.71,0,0,1,5.25,1.24,7.23,7.23,0,0,1,2.88,3.37,13.49,13.49,0,0,1,1,4.87,27.43,27.43,0,0,1-.47,5.79,52.14,52.14,0,0,1-1.5,6.1,61.09,61.09,0,0,1-2.11,5.82,19.4,19.4,0,0,0,7.16-4,38.68,38.68,0,0,0,6.75-7.81c.67-1,1.26-1.94,1.76-2.76.43-.59.76-.74,1-.44s.09,1.08-.38,2.37a39.82,39.82,0,0,1-5.34,9.17,30.66,30.66,0,0,1-6.31,6,26.06,26.06,0,0,1-7.73,3.82c-.31.55-.6,1-.88,1.47a26,26,0,0,1-3.49,4.28,14.87,14.87,0,0,1-4.17,2.94,11.5,11.5,0,0,1-4.9,1.06,17.67,17.67,0,0,1-5.61-.74,9,9,0,0,1-3.35-1.88A8.68,8.68,0,0,1,275.47,138Zm15.92-11a80.92,80.92,0,0,0,3.11-7.49q1.23-3.5,1.59-5a23.77,23.77,0,0,0,.67-6.75c-.18-1.37-.64-2.08-1.38-2.12-1.61,0-3.26.86-5,2.67a38.47,38.47,0,0,0-4.9,6.7c-1.57,2.64-2.92,5.19-4.06,7.63s-1.93,4.28-2.4,5.49v.12a13.74,13.74,0,0,0-1,6.19,4.46,4.46,0,0,0,1.85,3.5,3.58,3.58,0,0,0,3.9-.35,16.06,16.06,0,0,0,3.91-4.17,3.1,3.1,0,0,1-2.5-1.65,3.31,3.31,0,0,1,.09-2.61,5.09,5.09,0,0,1,1.82-2.23,3.2,3.2,0,0,1,2.7-.5A16,16,0,0,0,291.39,127Z"/><path d="M321.92,130.2a16.8,16.8,0,0,0-1,5.72c.1,1.35.72,1.93,1.85,1.74q2.47-.65,5.61-4.23a80.1,80.1,0,0,0,6.31-8.34c2.12-3.17,4-6.15,5.7-8.92.9-1.45,1.7-2.71,2.4-3.76.44-.59.76-.74,1-.44s.09,1.08-.38,2.37a92.3,92.3,0,0,1-9.63,17.53,43.22,43.22,0,0,1-7.34,8.19A12.39,12.39,0,0,1,321,143a8.47,8.47,0,0,1-6-1,7.83,7.83,0,0,1-3.93-5.25q-1-3.74.94-9.66l10-27.25h11ZM335,85.46a5.58,5.58,0,0,1,0,7.86,5.24,5.24,0,0,1-3.9,1.65,5.31,5.31,0,0,1-4-1.65,5.58,5.58,0,0,1,0-7.86,5.31,5.31,0,0,1,4-1.65A5.24,5.24,0,0,1,335,85.46Z"/><path d="M367.66,99.84a11,11,0,0,1,4.7.85A6.08,6.08,0,0,1,375,103a7.91,7.91,0,0,1,1.06,3.38,16.17,16.17,0,0,1-.15,4,30.71,30.71,0,0,1-1,4.23l-13.09,2.93a18.91,18.91,0,0,0,3.73-6.48,7.3,7.3,0,0,0,.14-4.67,1,1,0,0,0-.47-.5,2.19,2.19,0,0,0-.64-.21q-2.6-.06-5.38,3a45.2,45.2,0,0,0-5.57,8q-2.79,4.94-5.26,10.31t-4.34,9.71q-1.83,4.35-2.88,6.35h-11l15.91-43.28h11l-4.34,11.75a31.11,31.11,0,0,1,4.19-6.11,19.47,19.47,0,0,1,4.17-3.58,13.82,13.82,0,0,1,3.7-1.65A12.4,12.4,0,0,1,367.66,99.84Z"/><path d="M399.25,140a16.23,16.23,0,0,1-6.55,2.67,21.55,21.55,0,0,1-7.84.15,10.41,10.41,0,0,1-6.22-3.23q-2.58-2.82-2.7-8.22a44.26,44.26,0,0,1,1.91-12,45.84,45.84,0,0,1,4.72-11,24.15,24.15,0,0,1,3.56-4.56,16,16,0,0,1,4.31-3.11,11.43,11.43,0,0,1,5.05-1.14,15.41,15.41,0,0,1,6.29,1.11,7.65,7.65,0,0,1,3.64,3.23,9.77,9.77,0,0,1,1.08,7,15.34,15.34,0,0,1-3.17,6.43,17.84,17.84,0,0,1-5.4,4.52,9.83,9.83,0,0,1-5.64,1.35,4.47,4.47,0,0,1-3.78-3.08q-.76,2.06-1.59,5.08a25.58,25.58,0,0,0-.91,6,7.68,7.68,0,0,0,1.26,4.84,6.33,6.33,0,0,0,5.37,2.32,10.18,10.18,0,0,0,5.91-2.5,36.74,36.74,0,0,0,5-5.37q2.18-2.85,3.41-4.78c.16-.28.31-.53.47-.77q3.16-4.69,5.7-8.86,1.35-2.17,2.4-3.82c.43-.59.76-.72,1-.41s.09,1.1-.38,2.35a79.69,79.69,0,0,1-3.64,8,81.31,81.31,0,0,1-5.87,9.72A37.72,37.72,0,0,1,399.25,140Zm-9.63-22.6-.12.35a2.34,2.34,0,0,0,1.3,2.55,5.34,5.34,0,0,0,3.64.24,9,9,0,0,0,4.11-2.32,15.91,15.91,0,0,0,3.72-5.55,10.06,10.06,0,0,0,.71-4.93,3.81,3.81,0,0,0-1.7-2.94c-.92-.53-2.09-.4-3.5.38a11.68,11.68,0,0,0-3.2,3.15,38.84,38.84,0,0,0-2.85,4.58A47,47,0,0,0,389.62,117.4Z"/><path d="M440.23,130.2a16.49,16.49,0,0,0-1,5.72c.09,1.35.71,1.93,1.85,1.74q2.46-.65,5.6-4.23a80.11,80.11,0,0,0,6.32-8.34q3.16-4.75,5.75-8.92c.9-1.45,1.68-2.71,2.35-3.76.43-.59.75-.74,1-.44s.08,1.08-.38,2.37a74.67,74.67,0,0,1-3.7,7.9,90.2,90.2,0,0,1-5.93,9.63,44.77,44.77,0,0,1-7.28,8.19,12.91,12.91,0,0,1-5.41,2.91,8.29,8.29,0,0,1-5.93-1,7.4,7.4,0,0,1-3.2-3.23,11.23,11.23,0,0,1-1.08-5.46,33.46,33.46,0,0,1-3.47,4.9,21.48,21.48,0,0,1-3.75,3.55,6,6,0,0,1-3.41,1.36,8.19,8.19,0,0,1-4.43-1.24,8.28,8.28,0,0,1-3.12-3.81,16.42,16.42,0,0,1-1.14-6.58,38,38,0,0,1,.53-5.84,54.29,54.29,0,0,1,1.58-6.87,48.57,48.57,0,0,1,2.67-6.93,31.94,31.94,0,0,1,3.79-6.11,18.19,18.19,0,0,1,4.91-4.37,11.5,11.5,0,0,1,6.07-1.65,12.74,12.74,0,0,1,5.81,1.15,9.54,9.54,0,0,1,3.65,3.26L449.92,74h11Zm-5-16.38c.08-.24.26-.9.53-2a9,9,0,0,0,.15-3.49,5.07,5.07,0,0,0-1-2.7,2.13,2.13,0,0,0-1.53-.86q-2.16.06-4.58,3.15a38.11,38.11,0,0,0-4.52,7.75,68.9,68.9,0,0,0-3.49,9.48,30.39,30.39,0,0,0-1.38,8.1c0,1.49.24,2.38.73,2.67s1.15.16,2-.41a14.83,14.83,0,0,0,2.76-2.7,48,48,0,0,0,3.14-4.29q1.62-2.43,3.06-5.07c.95-1.77,1.81-3.49,2.55-5.17Z"/><path d="M564.07,59.56a11.89,11.89,0,0,1,4.64,2,7.88,7.88,0,0,1,3.28,5,11.34,11.34,0,0,1-1,6.81,17,17,0,0,1-5.82,7.1,21.68,21.68,0,0,1-8.13,3.35,43.45,43.45,0,0,1-9.25.79c-3.17-.06-6.18-.24-9-.56a9.64,9.64,0,0,0,2.38,7.23q2.61,2.94,8.83,3.29a.47.47,0,0,1,.42.64,2.39,2.39,0,0,1-.56,1,1.88,1.88,0,0,1-.91.62,58.08,58.08,0,0,0-16.12,4.55,42.28,42.28,0,0,0-11.57,7.66,35.94,35.94,0,0,0-7.28,9.54,32,32,0,0,0-3.32,10.19,33.32,33.32,0,0,0,4.88-.65,17.08,17.08,0,0,0,2.85-.73,10.74,10.74,0,0,0,3.14-1.68c.43-.35.75-.45,1-.32a1.41,1.41,0,0,1,.5.79,2.3,2.3,0,0,1,0,1.35,1.87,1.87,0,0,1-1,1.18,64,64,0,0,1-11.69,3.93A23.21,23.21,0,0,0,512.93,144a15,15,0,0,0,7.69,6.95c3.36,1.39,7.4,1.41,12.09.06s10-4.5,15.8-9.45,12.13-12.13,18.9-21.52q1.47-2.12,2.82-4.35c.79-1.33,1.47-2.42,2.06-3.28.31-.39.57-.59.76-.59s.36.2.38.62a4.93,4.93,0,0,1-.5,1.9c-.55,1.41-1.33,3.16-2.34,5.23a83.4,83.4,0,0,1-7.05,11.63,88.43,88.43,0,0,1-9.72,11.36,66.45,66.45,0,0,1-11.74,9.28,42.72,42.72,0,0,1-13.15,5.43,30.35,30.35,0,0,1-13.89-.18,22.8,22.8,0,0,1-17-19.08,29,29,0,0,1-.24-4.52q-7.15-1.19-10.92-5.52a17.49,17.49,0,0,1-4.19-10.48,27.41,27.41,0,0,1,2.34-12.72,36.45,36.45,0,0,1,8.72-12.18,43,43,0,0,1,14.89-8.9,55,55,0,0,1,20.93-2.87,24.48,24.48,0,0,1,4.85-9.63,32.55,32.55,0,0,1,22.69-12.1A26.68,26.68,0,0,1,564.07,59.56Zm-63.36,62.3a39.81,39.81,0,0,1,8.19-11.16,50.49,50.49,0,0,1,14.24-9.6,64.89,64.89,0,0,1,20.67-5.37,20.47,20.47,0,0,1-8.66-1.88,10.39,10.39,0,0,1-4.73-4.46,11.39,11.39,0,0,1-1.17-6.11q-10.75-.34-18.44,2.94a32.41,32.41,0,0,0-12.27,8.69,27.84,27.84,0,0,0-6.05,11.51,21.4,21.4,0,0,0,.15,11.42,15,15,0,0,0,6.37,8.42A28.28,28.28,0,0,1,500.71,121.86Zm54.61-60.07a23.32,23.32,0,0,0-7.25,4.64,32,32,0,0,0-5.76,7.08,25.61,25.61,0,0,0-3.2,7.9,40.16,40.16,0,0,0,14-1.18,21.72,21.72,0,0,0,8.66-4.61,14,14,0,0,0,4-6,8.92,8.92,0,0,0,.15-5.46,4.35,4.35,0,0,0-2.91-3A12.94,12.94,0,0,0,555.32,61.79Z"/><path d="M576.57,143.12a6.47,6.47,0,0,1-4.1-1.27,8.63,8.63,0,0,1-2.59-3.28,16.5,16.5,0,0,1-1.32-4.44,29.61,29.61,0,0,1-.38-4.75,61,61,0,0,1,1-10.46,101.55,101.55,0,0,1,2.4-10.62,63.27,63.27,0,0,1,3-8.46h11q-.76,1.83-2.44,6.73t-3.35,11.21a88.55,88.55,0,0,0-2.37,12.42q-.42,4.05.11,5.05c.36.66.9.62,1.65-.12a18.73,18.73,0,0,0,2.52-3.46q1.41-2.35,2.76-5c.9-1.8,1.68-3.41,2.32-4.82s1-2.33,1.21-2.76a.21.21,0,0,0,0-.12q3.06-6.92,4.7-11.68t2.29-7.4h8.52a47.82,47.82,0,0,1-1.68,5.82c-.8,2.3-1.79,4.82-3,7.54s-2.48,5.48-3.91,8.28-2.93,5.49-4.52,8.07a70.59,70.59,0,0,1-4.78,6.93,28.48,28.48,0,0,1-4.73,4.85A7.35,7.35,0,0,1,576.57,143.12Z"/><path d="M623.61,140a16.35,16.35,0,0,1-6.55,2.67,21.56,21.56,0,0,1-7.84.15,10.38,10.38,0,0,1-6.22-3.23q-2.58-2.82-2.7-8.22a43.87,43.87,0,0,1,1.91-12,45.44,45.44,0,0,1,4.72-11,24.52,24.52,0,0,1,3.55-4.56,16,16,0,0,1,4.32-3.11,11.43,11.43,0,0,1,5.05-1.14,15.36,15.36,0,0,1,6.28,1.11,7.56,7.56,0,0,1,3.64,3.23,9.73,9.73,0,0,1,1.09,7,15.46,15.46,0,0,1-3.17,6.43,18,18,0,0,1-5.4,4.52,9.83,9.83,0,0,1-5.64,1.35,4.48,4.48,0,0,1-3.79-3.08q-.76,2.06-1.58,5.08a25.58,25.58,0,0,0-.91,6,7.68,7.68,0,0,0,1.26,4.84,6.33,6.33,0,0,0,5.37,2.32,10.16,10.16,0,0,0,5.9-2.5,36.82,36.82,0,0,0,5.05-5.37q2.17-2.85,3.41-4.78c.15-.28.31-.53.47-.77q3.17-4.69,5.69-8.86c.9-1.45,1.71-2.72,2.41-3.82.43-.59.75-.72,1-.41s.09,1.1-.38,2.35A86.36,86.36,0,0,1,631,132,38,38,0,0,1,623.61,140ZM614,117.4l-.12.35a2.32,2.32,0,0,0,1.29,2.55,5.35,5.35,0,0,0,3.64.24,8.93,8.93,0,0,0,4.11-2.32,16,16,0,0,0,3.73-5.55,10.18,10.18,0,0,0,.71-4.93,3.82,3.82,0,0,0-1.71-2.94c-.92-.53-2.08-.4-3.49.38a11.55,11.55,0,0,0-3.2,3.15,37.57,37.57,0,0,0-2.85,4.58A47,47,0,0,0,614,117.4Z"/><path d="M664.83,99.84a10.26,10.26,0,0,1,5.16,1.09,5.8,5.8,0,0,1,2.62,2.91,10.13,10.13,0,0,1,.67,4.1,22.12,22.12,0,0,1-.65,4.73,47.13,47.13,0,0,1-1.4,4.73q-.83,2.28-1.53,4.17c-.23.62-.45,1.19-.65,1.7l-2.52,6.93a15.59,15.59,0,0,0-1.06,5.72c.12,1.35.73,1.93,1.82,1.74q2.52-.65,5.67-4.23a77.37,77.37,0,0,0,6.28-8.34q3.13-4.75,5.73-8.92c.9-1.45,1.7-2.71,2.4-3.76.39-.59.71-.74.94-.44s.12,1.08-.35,2.37a84.07,84.07,0,0,1-3.76,7.9,88.6,88.6,0,0,1-5.93,9.63,44.77,44.77,0,0,1-7.28,8.19,12.38,12.38,0,0,1-5.37,2.91,8.35,8.35,0,0,1-6-1,7.87,7.87,0,0,1-3.94-5.25q-1-3.74.89-9.66l4.69-12.63a.38.38,0,0,1,.06-.17,34.61,34.61,0,0,0,1.29-4,7.59,7.59,0,0,0,.24-3.87,1.05,1.05,0,0,0-.5-.5,2.84,2.84,0,0,0-.62-.21q-2.58-.06-5.37,3a44.68,44.68,0,0,0-5.58,8q-2.79,4.94-5.25,10.31t-4.35,9.71q-1.87,4.35-2.87,6.35h-11l15.91-43.28h11l-4.64,12.51a33.88,33.88,0,0,1,4.25-6.23,22.85,22.85,0,0,1,4.29-3.84,15.11,15.11,0,0,1,3.79-1.91A10,10,0,0,1,664.83,99.84Z"/><path d="M703.34,95.26h9.52l-1.71,4.58h-9.51L690.49,130.2a16.32,16.32,0,0,0-1,5.72c.09,1.35.71,1.93,1.85,1.74q2.46-.65,5.61-4.23a81.53,81.53,0,0,0,6.31-8.34q3.16-4.75,5.69-8.92c.9-1.45,1.71-2.71,2.41-3.76.43-.59.75-.74,1-.44s.09,1.08-.38,2.37c-.82,2.08-2.07,4.71-3.73,7.9a85.21,85.21,0,0,1-5.9,9.63,44.77,44.77,0,0,1-7.28,8.19,12.93,12.93,0,0,1-5.4,2.91,8.32,8.32,0,0,1-5.94-1,7.75,7.75,0,0,1-4-5.25q-1-3.74.91-9.66l10-27.25h-6.52l1.65-4.58h6.52L700.17,74h11Z"/><path d="M704.08,125.94a1.26,1.26,0,0,1,.26.41,2.76,2.76,0,0,1,.18.53,2,2,0,0,1,.06.38q-1.59,4.63-.15,7.55a5.79,5.79,0,0,0,5.14,3.2c2.43,0,4.44-1.2,6-3.7h-.36c-1.21-.24-1.93-.71-2.17-1.41a5,5,0,0,1-.17-2.29,6,6,0,0,1,.73-2.35,1.76,1.76,0,0,1,1.61-.94,10.2,10.2,0,0,0,1.59.35,14,14,0,0,0-1.23-3.64c-.59-1.17-1.24-2.35-1.94-3.52a37.89,37.89,0,0,1-2.06-3.58,19.87,19.87,0,0,1-1.46-4,10.12,10.12,0,0,1,2.93-10.21A10.39,10.39,0,0,1,718.2,100l2.35,5.46h-.12a3.37,3.37,0,0,0-1.73,1.73,3.48,3.48,0,0,0,0,2.26,12.2,12.2,0,0,0,1.38,2.91c.65,1,1.38,2.12,2.2,3.26,1.14,1.6,2.2,3.28,3.2,5a18.7,18.7,0,0,1,2.09,5.37,17,17,0,0,0,4.17-3,38.24,38.24,0,0,0,6.4-7.81c.58-1,1.13-1.94,1.64-2.76.39-.59.68-.74.88-.44s.1,1.08-.29,2.37a35.65,35.65,0,0,1-5.05,9.93,26.66,26.66,0,0,1-7.93,7.28,13.37,13.37,0,0,1-2.17,4.75,17.65,17.65,0,0,1-8.19,6.08,17.36,17.36,0,0,1-4.38.85,13.09,13.09,0,0,1-6.84-1.52,11.07,11.07,0,0,1-4.46-4.38,8.85,8.85,0,0,1-1-5.75,9.64,9.64,0,0,1,3.47-5.67A.22.22,0,0,1,704.08,125.94Z"/><path class="cls-1" d="M306,187.48a7.15,7.15,0,0,1-2.52,5.92q-2.52,2-7.48,2H285.93V169.26h9.58a13.59,13.59,0,0,1,3.81.49,8.92,8.92,0,0,1,2.92,1.41,6.13,6.13,0,0,1,1.87,2.22,7,7,0,0,1,.05,5.84,5.93,5.93,0,0,1-1.91,2.17,6.45,6.45,0,0,1,1.65,1.11,6.61,6.61,0,0,1,1.16,1.44,6.53,6.53,0,0,1,.69,1.69A7.56,7.56,0,0,1,306,187.48Zm-15.17-7.91h4.67a6.5,6.5,0,0,0,3.36-.68,2.51,2.51,0,0,0,1.09-2.29,3.08,3.08,0,0,0-.25-1.26,2.13,2.13,0,0,0-.81-.88,4.13,4.13,0,0,0-1.48-.53,12.69,12.69,0,0,0-2.22-.17h-4.36Zm0,11.35H296q5,0,5-3.44a4.22,4.22,0,0,0-.26-1.55,2.26,2.26,0,0,0-.9-1.07,4.56,4.56,0,0,0-1.69-.64,13.65,13.65,0,0,0-2.62-.21h-4.7Z"/><path class="cls-1" d="M336,195.42h-5.45l-2.86-7.48h-9.15l-2.73,7.48h-5.17l10.05-26.16h4.65Zm-9.83-11.63L323,175.5l-3,8.29Z"/><path class="cls-1" d="M362.58,195.42H358l-11.67-17.49v17.49h-4.7V169.26h4.61l11.62,17.53V169.26h4.74Z"/><path class="cls-1" d="M396.27,194.2l-3,3.51-4.23-3.36a11.18,11.18,0,0,1-2.91,1.13,13.75,13.75,0,0,1-3.22.36,12.88,12.88,0,0,1-5.1-1,11.59,11.59,0,0,1-4-2.75,12.66,12.66,0,0,1-2.59-4.27,15.61,15.61,0,0,1-.93-5.51,15.3,15.3,0,0,1,.95-5.54,12.58,12.58,0,0,1,2.62-4.26,11.65,11.65,0,0,1,4-2.72,13.64,13.64,0,0,1,10.08,0,11.59,11.59,0,0,1,4,2.73,12.58,12.58,0,0,1,2.62,4.26,15.45,15.45,0,0,1,.94,5.52,15.72,15.72,0,0,1-.73,4.94,13.09,13.09,0,0,1-2.15,4.06Zm-7.34-5.76a8.73,8.73,0,0,0,1.21-2.7,13.25,13.25,0,0,0,.41-3.42,12.21,12.21,0,0,0-.57-3.87,8.48,8.48,0,0,0-1.58-2.86,6.81,6.81,0,0,0-2.39-1.77,7.8,7.8,0,0,0-6.07,0,6.8,6.8,0,0,0-2.43,1.79,8.21,8.21,0,0,0-1.59,2.87,13.33,13.33,0,0,0,0,7.68,8.28,8.28,0,0,0,1.56,2.88,6.87,6.87,0,0,0,2.41,1.81,7.33,7.33,0,0,0,3.05.63,7.44,7.44,0,0,0,2.12-.29l-2-1.57L386,186.1Z"/><path class="cls-1" d="M413.79,195.84a15.49,15.49,0,0,1-4.2-.5,9.11,9.11,0,0,1-2.91-1.33,6.6,6.6,0,0,1-1.83-2,9.63,9.63,0,0,1-1-2.43,13.57,13.57,0,0,1-.43-2.65q-.09-1.37-.09-2.7v-15h4.88V184.2a14.52,14.52,0,0,0,.37,3.63,5.11,5.11,0,0,0,1.09,2.19,3.61,3.61,0,0,0,1.75,1.07,10.25,10.25,0,0,0,4.8,0A3.57,3.57,0,0,0,418,190a5.11,5.11,0,0,0,1.06-2.18,14.38,14.38,0,0,0,.37-3.62V169.26h4.91v15a22.54,22.54,0,0,1-.48,4.88,8.76,8.76,0,0,1-1.66,3.65,7.41,7.41,0,0,1-3.21,2.27A14.26,14.26,0,0,1,413.79,195.84Z"/><path class="cls-1" d="M453.12,195.42h-20V169.26h19.43v4.5H438v5.91h13.62v4.46H438v6.79h15.12Z"/><path class="cls-1" d="M480.05,173.76h-8.14v21.66H467V173.76h-8.1v-4.5h21.13Z"/><path class="cls-1" d="M528,195.42h-4.91V183.84H511.9v11.58H507V169.26h4.87v10.08h11.19V169.26H528Z"/><path class="cls-1" d="M559.05,195.42h-5.44l-2.87-7.48h-9.15l-2.72,7.48H533.7l10-26.16h4.65Zm-9.82-11.63-3.17-8.29-3,8.29Z"/><path class="cls-1" d="M581.49,195.42H564.61V169.26h4.88v21.66h12Z"/><path class="cls-1" d="M605.25,195.42H588.37V169.26h4.88v21.66h12Z"/><path class="cls-2" d="M115.89,44.34s40.27,4.65-9.27,51.72c4.45-3.36-22,13.15-32.15,28.29C74.47,124.35,85.81,65.43,115.89,44.34Z"/><path class="cls-3" d="M76.11,145.46s-16.6-48,9-82.9c0,0,5.64-14.59,36-32.43,0,0,9.19,6.65,9.72,24.67C130.78,54.8,69.89,83.25,76.11,145.46Z"/><path class="cls-4" d="M70.19,122.14c-3.53-52.51,37.69-98,92.07-101.68A100.57,100.57,0,0,1,223,35.77,101.82,101.82,0,0,0,138.12.24C82.56,4,40.43,50.49,44,104.14c2.45,36.5,23.06,68.85,55,83.38C81.26,171.62,71.88,147.39,70.19,122.14Z"/><path class="cls-5" d="M57.08,49.24C58.25,46.5,104.83,65.7,92,111.76c0,0-16.31,10.38-13,46.85C78.94,158.61,16.29,117.23,57.08,49.24Z"/><path class="cls-1" d="M19.4,93.06s58.78-8.3,62.24,65.35L58.13,168.92S36.69,153.22,36,151.15s-8.71-26.55-9.18-27.94c-2.11-6.17-7.42-7.33-5.69-9.75S19.4,93.06,19.4,93.06Z"/><path class="cls-6" d="M43.28,96s26.34,3.11,33.44,38.43c0,0,1.2,18.58,5,25.37,0,0-18.43,1-31.58-35.44A94.14,94.14,0,0,1,43.28,96Z"/><path class="cls-7" d="M21.13,152.16s29.74-17.76,60.51,7.18c0,0,13.2,48,62.3,27.82C143.94,187.16,68.5,216.05,21.13,152.16Z"/><path class="cls-7" d="M109.63,198.57a97.05,97.05,0,0,0,39.31-14,98.47,98.47,0,0,1-16.63,3.59A97.4,97.4,0,0,1,68.54,8.93a97.39,97.39,0,0,0,41.09,189.64Z"/><path class="cls-7" d="M24.48,153.12c5.77-4.19,19.26-10,42.4,1.39a2.72,2.72,0,0,0,.47.19c1.59.51,11.1,3.65,16,8.78a3.19,3.19,0,0,1,.59.87c1.43,3,10.67,20.34,37.19,24.79a3.43,3.43,0,0,1,.68,6.59h0a3.39,3.39,0,0,1-1.64.2L103,193.86a4.21,4.21,0,0,1-.49-.09l-34.42-9.43a3.52,3.52,0,0,1-.51-.19l-21.89-9.94a3.5,3.5,0,0,1-.62-.37L24.48,158.65A3.43,3.43,0,0,1,24.48,153.12Z"/><path class="cls-8" d="M132.33,188.42A97.32,97.32,0,0,1,43.49,152a41,41,0,0,1-22.46.26,39.16,39.16,0,0,1-9.48-4.07A97.45,97.45,0,0,0,149,184.83,98.26,98.26,0,0,1,132.33,188.42Z"/><path class="cls-8" d="M43.49,152l-3.92-5.52s-20.85-2.53-28,1.71c0,0,6.58,5.54,7.1,6.32s11.28,3,12.18,3,7.65.26,8.43,0S43.49,152,43.49,152Z"/><path class="cls-9" d="M82.41,64.88s13.93,9,11.76,32.37c0,0,1.62,11.17-9.37,29.89,0,0-5.34,17.47-2.9,32.65,0,0-17.46-25.68-10.75-65.76C71.15,94,71.86,75.23,82.41,64.88Z"/></g></g></svg>
